<?xml version="1.0" encoding="iso-8859-1"?>
<svg version="1.1" xmlns="http://www.w3.org/2000/svg" xmlns:xlink="http://www.w3.org/1999/xlink"
	 viewBox="0 0 57.475 57.475" xml:space="preserve">
<path style="fill:#A5A5A4;" d="M27.7,25.705c-0.053,0.054-0.11,0.102-0.158,0.163L5.092,54.733c-0.526,0.676-0.466,1.639,0.14,2.245
	c0.606,0.606,1.568,0.666,2.245,0.14l28.864-22.45c0.061-0.048,0.109-0.105,0.163-0.158L27.7,25.705z"/>
<path style="fill:#E4C05C;" d="M37.814,35.819L26.39,24.395c-0.555-0.555-0.555-1.456,0-2.011l4.353-4.353
	c0.555-0.555,1.456-0.555,2.011,0l11.424,11.424c0.555,0.555,0.555,1.456,0,2.011l-4.353,4.353
	C39.269,36.374,38.369,36.374,37.814,35.819z"/>
<rect x="34.234" y="17.475" transform="matrix(0.7071 -0.7071 0.7071 0.7071 -8.7543 32.815)" style="fill:#F5EFCA;" width="2" height="19"/>
<path style="fill:#D1D4D1;" d="M14.071,43.189L5.092,54.733c-0.526,0.676-0.466,1.639,0.14,2.245
	c0.606,0.606,1.568,0.666,2.245,0.14l11.544-8.979L14.071,43.189z"/>
<path style="fill:#F0C419;" d="M51.678,8.934C49.361,4.238,45.168,0,45.168,0s-4.193,4.238-6.51,8.934
	c-1.698,3.442-1.388,7.631,1.123,10.535C40.996,20.875,42.73,22,45.168,22s4.172-1.125,5.388-2.531
	C53.066,16.565,53.376,12.376,51.678,8.934z"/>
<path style="fill:#F29C1F;" d="M48.596,10.973c-1.246-2.526-3.502-4.805-3.502-4.805s-2.255,2.28-3.502,4.805
	c-0.914,1.851-0.746,4.104,0.604,5.666C42.85,17.395,43.783,18,45.094,18s2.244-0.605,2.898-1.361
	C49.342,15.077,49.509,12.824,48.596,10.973z"/>
</svg>
